<?xml version="1.0" encoding="UTF-8"?>
<svg width="312px" height="260px" viewBox="0 0 312 260" version="1.1" xmlns="http://www.w3.org/2000/svg" xmlns:xlink="http://www.w3.org/1999/xlink">
    <!-- Generator: Sketch 52.5 (67469) - http://www.bohemiancoding.com/sketch -->
    <title>user-image-with-black-background</title>
    <desc>Created with Sketch.</desc>
    <g id="Page-1" stroke="none" stroke-width="1" fill="none" fill-rule="evenodd">
        <g id="user-image-with-black-background" fill="#1B3764" fill-rule="nonzero">
            <path d="M155.771,0.331 C69.74,0.331 0,70.071 0,156.102 C0,193.59 13.25,227.985 35.314,254.863 C38.718,227.607 65.941,204.555 104.114,193.638 C118.06,206.632 136.074,214.516 155.77,214.516 C175.003,214.516 192.664,207.029 206.468,194.58 C244.971,206.451 271.609,230.85 272.485,259.21 C296.769,231.738 311.541,195.655 311.541,156.102 C311.541,70.071 241.801,0.331 155.771,0.331 Z M155.771,196.069 C145.827,196.069 136.457,193.337 128.137,188.605 C108.087,177.196 94.282,153.849 94.282,126.894 C94.282,88.751 121.865,57.718 155.771,57.718 C189.68,57.718 217.26,88.751 217.26,126.894 C217.26,154.263 203.023,177.898 182.474,189.109 C174.379,193.523 165.346,196.069 155.771,196.069 Z" id="Shape"></path>
        </g>
    </g>
</svg>